# xmcd
#
# Track frame offsets: 
#        150
#        11340
#        25737
#        39170
#        50762
#        64612
#        74582
#        85382
#        96675
#        111010
#        121190
#        129920
#        140227
#        148760
#        160130
#        170405
#        177357
#        190110
#        199070
#        208835
#        217092
#        228152
#        238590
#
# Disc length: 3328 seconds
#
# Revision: 1
# Processed by: cddbd v1.5.2PL0 Copyright (c) Steve Scherf et al.
# Submitted via: ExactAudioCopyFreeDBPlugin 1.0
#
DISCID=520cfe17
DTITLE=Amos Milburn - The Complete Aladdin Recordings of Amos Milburn 
DTITLE=[Mosaic box set]
DYEAR=1994
DGENRE=Rhythm and Blues
TTITLE0=One, Two, Three, Everybody
TTITLE1=That's It
TTITLE2=Vicious, Vicious Vodka
TTITLE3=I Done Done It
TTITLE4=I'm Falling for You
TTITLE5=My Happiness Depend on You
TTITLE6=All is Well
TTITLE7=House Party (Tonight)
TTITLE8=I Guess I'll Go
TTITLE9=I Need Someone
TTITLE10=Juice, Juice, Juice
TTITLE11=I'll Be True
TTITLE12=French Fried Potatoes and Ketchup
TTITLE13=Chicken Shack Boogie (1956 release)
TTITLE14=Every Day of the Week
TTITLE15=Girl of My Dreams
TTITLE16=Dear Angel
TTITLE17=Shake, Shake
TTITLE18=If I Could Be with You (One Hour Tonight)
TTITLE19=We Teenagers Know What We Want
TTITLE20=Rum and Coca Cola
TTITLE21=Soft Pillow
TTITLE22=Thinking of You Baby
EXTD=
EXTT0=
EXTT1=
EXTT2=
EXTT3=
EXTT4=
EXTT5=
EXTT6=
EXTT7=
EXTT8=
EXTT9=
EXTT10=
EXTT11=
EXTT12=
EXTT13=
EXTT14=
EXTT15=
EXTT16=
EXTT17=
EXTT18=
EXTT19=
EXTT20=
EXTT21=
EXTT22=
PLAYORDER=
